<svg width="265" height="204" viewBox="0 0 265 204" fill="none" xmlns="http://www.w3.org/2000/svg">
<path fill-rule="evenodd" clip-rule="evenodd" d="M142.744 52.5876C147.096 55.6274 152.926 53.8453 157.154 51.5572C157.408 53.3295 160.72 53.1614 161.907 54.0157C163.777 55.3628 165.872 57.8144 167.34 59.6005C170.728 63.7256 172.822 69.4904 174.719 74.4331C176.672 79.5228 179.084 83.8888 184.106 86.7188C185.729 87.6331 187.3 88.8592 188.965 89.7167C190.955 90.7421 193.262 91.2435 195.451 91.0791C198.06 90.8832 200.31 90.8015 202.867 90.3101C205.6 89.7849 208.516 89.2348 211.223 89.3176C213.232 89.3792 215.26 88.97 217.218 89.0628C218.421 89.1196 219.612 89.0178 220.812 89.068C221.288 89.0879 221.659 89.0842 222.15 89.1283C223.313 89.233 223.331 89.1072 223.502 90.1375C223.704 91.3555 222.925 93.3333 222.848 94.5835C222.759 96.0366 223.005 97.4711 222.952 98.9114C222.892 100.53 222.426 100.381 221.012 101.123C219.641 101.843 218.337 102.536 216.919 103.171C212.858 104.988 208.57 106.768 204.091 107.268C198.716 107.87 193.117 107.232 187.777 107.001C184.801 106.872 181.717 106.362 178.855 105.631C176.602 105.056 172.952 103.889 171.193 102.378C173.206 102.287 172.5 100.5 171.325 99.7092C169.183 98.2688 168.224 98.9603 168.737 101.376C166.216 100.55 163.962 98.5498 161.816 96.9482C159.056 94.8894 154.962 91.7954 154.798 88.0911C154.614 83.9141 149.694 75.4833 150.206 79.8791C150.666 83.8298 152.394 89.1702 150.206 92.8711C150.111 90.6526 146.157 87.0068 144.295 86.3819C140.985 85.2709 137.054 85.4427 133.605 85.6547C127.216 86.047 120.808 87.3034 114.677 88.9964C108.493 90.7045 101.874 92.9233 96.7378 96.9784C96.1051 97.4782 95.5142 98.3066 94.8701 98.7372C94.6455 98.8874 93.9728 98.802 93.6529 98.9683C92.8014 99.4102 94.0931 99.4848 92.6932 99.5884C92.3902 99.6106 91.5949 99.2857 91.3888 99.1921C88.003 97.6551 88.1951 93.545 88.397 90.396C88.8605 83.1589 91.198 75.8568 94.0525 69.2512C96.6063 63.3424 100.09 57.0082 105.14 52.8709C107.349 51.0613 109.543 48.9385 112.087 47.6486C113.054 47.159 114.792 46.3925 114.411 44.9283C114.004 43.3654 112.156 44.1264 110.857 44.0637C104.108 43.7389 98.6669 40.8973 93.5573 36.5776C88.321 32.1509 82.8184 30.6557 76.3184 28.9825C74.4468 28.5009 61.5779 25.4086 59.7313 25.4247C57.6882 25.4427 55.6532 25.5093 53.6122 25.5479C52.3988 25.5709 51.1842 25.5683 49.9695 25.6656C48.9916 25.7441 47.9142 26.1482 46.94 26.0435C46.0268 25.9455 46.0983 26.2164 45.6494 25.5379C45.3334 25.0605 45.4187 24.0719 45.3274 23.4904C45.2474 22.9826 45.1674 22.4746 45.0877 21.9665C44.8356 20.3639 43.6577 19.5444 44.9563 18.8965C46.8638 17.9446 50.7942 17.0814 52.8809 16.6992C54.8786 16.3337 66.1882 13.6268 69.9691 12.8906C71.8523 12.524 94.6571 11.6747 95.5078 11.6689C103.701 11.6126 121.173 16.1251 125.098 19.7319C129.023 23.3387 129.027 25.9545 130.723 27.4136C132.619 29.044 135.185 31.0716 136.518 33.1852C137.42 34.6139 137.766 38.3944 139.609 38.9508C138.27 43.2361 138.753 49.7997 142.744 52.5876Z" fill="#97D2EB"/>
<path fill-rule="evenodd" clip-rule="evenodd" d="M21.7657 39.3537C22.2855 39.4736 22.5371 39.267 22.6273 38.7299C22.2868 38.9764 22.0262 39.165 21.7657 39.3537ZM28.571 166.588C28.11 166.614 28.5663 167.782 28.6251 167.777C28.6069 167.381 28.589 166.984 28.571 166.588ZM154.263 22.1141C154.864 22.215 158.246 23.1399 157.107 21.2533C156.496 20.2396 155.262 22.1149 154.263 22.1141ZM143.087 44.9209C141.367 45.8731 146.675 49.2346 147.435 49.4452C148.177 49.651 153.771 50.3925 153.838 49.1606C151.885 48.7287 149.924 48.9894 148.011 48.4124C145.67 47.7063 144.767 46.5436 143.087 44.9209ZM226.755 96.8324C226.858 95.2993 226.92 93.8106 227.231 92.3016C227.296 91.9885 227.823 90.5439 227.706 90.3561C227.522 90.0615 226.12 89.8155 225.83 89.7167C225.607 92.7195 225.354 95.7125 224.937 98.697C225.917 98.3589 225.661 97.0112 226.755 96.8324ZM43.7604 26.5075C43.7604 24.8645 43.3226 22.4197 42.995 20.8251C42.7271 19.5216 41.7726 18.2535 41.227 16.9423C41.0569 17.8448 40.4606 19.2233 40.6513 20.1437C40.9005 21.3437 41.4688 21.1466 41.4688 22.6234C41.4688 23.5214 41.3204 24.5441 41.4839 25.4272C41.8048 27.1669 42.3199 26.8887 43.7604 26.5075ZM170.206 13.8302C168.236 12.7388 164.869 14.8145 163.103 15.769C161.007 16.9024 158.898 19.949 158.047 22.1619C158.88 22.0694 159.585 22.0538 160.19 21.6052C160.502 21.3743 160.83 20.722 161.124 20.4143C161.884 19.6201 162.84 18.8807 163.673 18.1581C165.659 16.4361 167.806 14.9123 170.206 13.8302ZM181.85 41.3383C183.487 41.0503 185.373 40.3074 185.841 38.4647C186.293 36.6838 184.988 35.8215 183.392 35.6001C179.732 35.0913 177.257 40.4022 181.85 41.3383ZM169.078 35.8424C170.883 37.1023 172.855 36.943 174.642 35.5351C176.073 34.4081 177.47 32.4808 175.848 31.1031C173.243 28.8894 169.509 33.4189 169.078 35.8424ZM246.917 175.266C245.787 175.335 243.966 176.516 242.975 177.098C241.732 177.827 240.424 178.597 239.222 179.27C236.727 180.666 233.924 182.233 231.157 183.281C228.445 184.308 225.71 185.599 222.94 186.813C221.755 187.333 220.097 187.94 218.753 187.799C217.524 187.67 216.232 186.406 215.131 185.852C213.42 184.992 212.308 183.876 210.941 182.499C210.346 181.9 208.83 179.382 208.026 179.287C207.339 179.207 205.462 180.709 204.926 181.032C204.097 181.531 202.846 182.348 202.058 182.975C201.279 183.596 201.236 183.14 201.181 183.955C201.144 184.509 202.415 185.596 202.806 186.042C204.123 187.542 205.497 189.01 206.74 190.575C207.807 191.919 208.801 193.362 209.718 194.814C210.608 196.222 212.256 197.852 212.614 199.498C214.683 197.473 216.716 198.46 219.316 197.85C220.442 197.586 221.443 196.961 222.497 196.592C223.377 196.283 224.321 196.182 225.226 195.982C229.24 195.096 233.135 193.362 236.889 191.811C237.766 191.448 238.494 190.756 239.341 190.337C240.249 189.888 241.24 189.739 242.156 189.326C244.511 188.264 246.899 187.147 249.227 186.011C251.725 184.792 254.357 183.737 256.808 182.45C258.289 181.673 261.161 180.279 261.846 178.633C260.21 178.926 258.836 179.858 257.322 180.33C254.65 181.161 254.781 178.646 254.781 176.729C253.886 176.729 252.091 178.011 251.235 178.409C250.13 178.923 248.68 180.282 247.453 180.373C244.417 180.599 245.884 176.604 246.917 175.266ZM139.647 38.9175C137.951 38.4055 137.612 35.1634 136.893 33.8226C135.834 31.8449 133.804 30.2431 132.184 28.6976C130.694 27.2763 129.099 26.0737 127.427 24.8801C125.715 23.6572 124.53 22.0485 122.956 20.7001C116.38 15.0689 108.35 13.1626 99.8638 12.8683C91.3384 12.5726 82.7342 13.5142 74.1682 14.0616C73.0766 14.1313 72.101 14.162 71.0121 14.3461C70.7505 14.2671 70.4891 14.1881 70.2275 14.1091L69.6217 14.5453C69.2018 14.6071 68.6045 14.6713 68.2178 14.7464C66.2217 15.1334 64.2265 15.6483 62.2314 16.0995C58.0019 17.0556 53.9125 17.9346 49.6498 18.8278C48.6334 19.0408 46.1611 19.1776 45.3639 19.8225C44.7454 20.3229 44.9765 20.5199 45.121 21.4391C45.2539 22.2845 45.3866 23.1296 45.5198 23.975C45.7779 25.6161 45.6659 26.1826 47.4403 26.0127C48.9657 25.8666 50.4526 25.5961 51.9952 25.5261C54.2129 25.4249 56.4673 25.2962 58.6855 25.3401C60.8829 25.3837 63.4145 25.0191 65.5658 25.5826C64.9025 24.1924 64.5119 19.9815 66.272 22.8955C67.0994 24.2653 66.8944 25.944 68.673 26.433C70.1233 26.8317 71.701 27.0644 73.1958 27.4427C79.0881 28.9343 85.2299 29.9626 90.2566 33.8461C95.1834 37.6526 99.6674 42.0344 105.973 43.4238C107.486 43.7572 109.325 43.9511 110.918 44.028C111.845 44.0726 113.689 43.511 114.32 44.3487C115.85 46.3819 110.181 48.7741 109.045 49.787C106.736 51.8464 104.125 53.4558 102.125 55.8591C100.035 58.3708 98.2387 61.1078 96.6993 63.9724C93.236 70.4167 90.7901 77.2502 89.3684 84.4227C88.6953 87.8183 87.9347 91.7074 88.5397 95.1817C88.7839 96.5835 89.5693 97.9795 90.7783 98.7784C91.1712 99.0384 91.6639 99.2183 92.118 99.3549C92.5474 99.4957 92.9875 99.5789 93.4388 99.6045C93.4889 99.3506 93.5852 99.1168 93.7271 98.9028C94.0467 98.7369 94.7192 98.8223 94.9436 98.6722C95.5872 98.2418 96.1774 97.4136 96.8098 96.914C97.9077 96.047 99.0935 95.2229 100.301 94.5226C103.347 92.7573 106.664 91.719 109.924 90.6084C116.634 88.3223 123.663 86.4485 130.789 85.7505C134.549 85.3822 138.775 85.1558 142.501 85.8535C144.904 86.3037 149.781 88.4146 149.906 91.3317C152.085 87.6444 150.703 83.7651 150.236 79.8239C149.713 75.4188 148.816 71.2584 150.295 66.9109C151.301 63.9536 153.031 60.0518 155.973 58.5414C157.026 58.0006 159.274 58.3269 158.494 60.1141C158.474 60.1601 157.007 60.9952 156.799 61.2383C156.085 62.0694 155.544 63.1557 155.013 64.1097C150.785 71.6967 154.547 79.9801 154.824 88.0315C154.953 91.7486 159.084 94.829 161.836 96.8842C163.975 98.4812 166.238 100.486 168.752 101.309C168.24 98.8949 169.198 98.2041 171.338 99.6436C172.512 100.434 173.218 102.22 171.206 102.31C172.792 103.674 176.032 104.73 178.048 105.254C180.41 105.869 182.828 106.417 185.288 106.765C190.201 107.46 195.203 107.239 200.143 107.29C205.229 107.342 209.473 105.984 214.145 104.22C216.29 103.41 218.306 102.473 220.346 101.409C221.038 101.049 222.608 100.63 222.988 99.8396C223.478 98.822 222.746 96.1827 222.789 95.019C222.835 93.78 223.755 91.2057 223.474 90.0771C223.206 88.9966 223.886 89.7556 222.788 89.2153C222.492 89.0692 221.826 88.9934 221.463 88.9524C219.431 88.7234 217.029 88.9118 215.054 89.1662C212.792 89.4576 210.696 89.0644 208.497 89.3244C205.444 89.6853 202.311 90.2261 199.362 91.1003C194.708 92.4799 190.401 92.3819 186.242 89.7426C184.483 88.6262 182.411 87.4804 180.903 85.9526C178.877 83.899 177.392 80.9753 176.247 78.3532C173.73 72.5849 171.896 66.5289 168.449 61.2071C166.972 58.9264 164.918 57.0704 163.021 55.1284C162.123 54.2101 161.607 53.6809 160.378 53.2857C159.386 52.9671 157.372 52.8696 157.178 51.5174C152.953 53.8045 147.13 55.5833 142.78 52.547C138.792 49.7635 138.31 43.1963 139.647 38.9175ZM139.428 94.0394C133.922 94.647 128.591 95.1027 123.176 96.3563C117.713 97.6207 112.014 99.5488 106.828 101.452C104.794 102.199 102.217 102.726 100.375 103.882C99.0083 104.74 99.1789 104.707 100.16 106.288C100.817 107.346 101.369 108.531 102.072 109.547C104.927 113.677 108.84 117.211 112.122 120.958C115.749 125.098 119.998 129.197 124.155 132.825C128.152 136.314 132.093 140.053 136.344 143.188C145.203 149.723 154.175 156.167 163.383 162.202C168.496 165.553 173.488 168.987 178.615 172.363C181.281 174.118 183.769 176.056 186.601 177.522C189.523 179.034 193.094 181.153 195.5 183.387C197.179 180.417 200.731 178.495 203.388 176.573C203.919 176.19 204.489 175.672 204.998 175.242C205.965 174.424 206.014 174.56 205.497 173.623C204.928 172.594 203.378 171.764 202.566 170.912C201.823 170.133 201.333 169.343 200.658 168.509C198.415 165.736 195.526 163.433 193.015 160.91C190.598 158.481 188.351 156.015 185.988 153.429C184.818 152.148 183.488 151.226 182.366 149.93C180.808 148.13 179.272 146.286 177.733 144.468C174.972 141.205 172.653 137.742 169.966 134.462C165.078 128.495 161.371 121.748 157.092 115.347C154.466 111.418 151.22 107.751 148.833 103.667C147.518 101.417 146.251 99.1755 145.309 96.7177C144.773 95.3175 144.902 95.2082 143.592 94.7984C142.328 94.4032 140.733 94.1289 139.428 94.0394ZM71.025 151.352C73.8124 151.082 76.6797 152.008 79.3845 152.122C82.0145 152.233 84.7048 152.519 87.3395 152.346C90.231 152.157 93.1395 152.162 96.0197 152.252C99.142 152.349 102.116 151.843 105.126 151.402C108.168 150.956 111.482 149.572 114.456 148.687C116.215 148.163 117.908 147.484 119.675 146.99C121.463 146.491 122.888 145.305 124.517 144.394C125.628 143.773 127.985 143.021 127.491 141.743C127.053 140.608 124.13 138.903 123.174 138.078C120.347 135.639 117.481 133.218 114.862 130.541C109.307 124.862 104.014 119.198 99.3211 112.788C98.2063 115.942 96.9754 119.143 94.5109 121.544C92.4171 123.584 90.0037 125.333 87.7667 127.19C83.4228 130.798 78.1964 133.368 73.0077 135.446C70.4403 136.474 67.9578 137.134 65.3706 138.043C64.1458 138.474 62.8417 138.39 61.6934 138.66C59.9533 139.069 58.1356 139.916 56.3731 140.413C53.8888 141.115 51.377 141.607 48.7795 141.383C45.399 141.092 42.5886 139.435 39.5101 138.236C39.6702 139.434 38.7503 143.679 39.432 144.575C39.81 145.072 42.2286 145.276 42.9779 145.443C46.0353 146.126 49.2898 146.538 52.3443 146.934C55.5838 147.354 58.6391 148.957 61.7997 149.703C64.7825 150.407 68.0773 151.063 71.025 151.352ZM16.5915 168.822C16.7862 171.095 17.0702 174.53 18.91 176.165C19.6147 174.455 19.2238 172.143 19.5356 170.321C19.7212 169.236 19.9731 168.167 20.2352 167.098C20.3843 166.491 20.4755 164.742 20.7925 164.389C23.0683 161.858 23.5293 169.391 23.7869 170.267C24.629 168.235 24.3513 165.98 25.0993 163.996C25.9938 161.622 27.3927 163.532 28.1554 165.023C28.3806 161.745 27.0928 158.442 27.1384 155.102C27.1875 151.54 27.793 149.17 30.5213 146.772C31.8257 145.625 35.3096 144.222 35.9373 142.78C36.0441 142.535 36.017 140.727 35.9473 140.475C35.6546 139.415 35.7638 139.633 34.4773 139.324C33.3501 139.054 32.301 138.69 31.1603 138.521C28.0533 138.06 25.6592 137.995 23.0258 139.93C20.2872 141.942 18.9854 145.522 18.2549 148.736C16.7624 155.3 16.0746 162.106 16.5915 168.822ZM231.693 96.3265C236.347 95.7328 240.954 93.8291 245.544 93.5126C248.304 93.3224 251.381 92.6902 254.084 92.1111C255.862 91.7301 259.577 91.4165 260.569 89.6964C259.371 90.0655 257.789 90.9061 256.536 90.9389C255.615 90.9629 255.294 91.137 255.112 89.8723C255.024 89.2673 255.221 88.5411 255.589 88.0656C256.221 87.2466 257.576 86.8458 258.495 86.3248C259.735 85.6229 260.888 84.8713 262.056 84.0541C261.7 83.1707 256.724 84.9426 255.945 85.2226C254.979 85.5698 253.999 85.9066 253.072 86.3496C252.463 86.6403 251.408 87.5787 250.721 87.5536C248.984 87.4907 249.14 85.3941 249.982 84.1894C251.175 82.4833 253.552 81.2133 255.153 79.8868C253.441 79.9597 251.886 80.9602 250.313 81.5589C248.574 82.2206 246.812 82.9723 245.111 83.7107C240.937 85.5233 236.489 86.7652 232.244 88.5139C233.521 90.6908 232.07 91.7621 229.985 90.9619C229.671 92.798 229.549 94.6679 229.549 96.5259C230.263 96.4594 230.978 96.3928 231.693 96.3265ZM38.2302 22.2393C38.2534 21.8372 38.558 19.8756 38.197 19.5361C38.0706 19.4175 36.0404 19.7033 35.8405 19.7327C34.52 19.9266 33.429 20.4209 32.1923 20.9477C29.166 22.2369 26.1057 23.3999 23.0851 24.6978C17.4299 27.1278 11.8283 29.3845 6.54887 32.544C10.4721 32.2121 14.4856 31.0756 18.0576 29.4194C19.5685 28.719 25.2396 24.0096 25.4065 28.1072C25.4803 29.9206 23.9188 30.5655 22.6004 31.4391C20.9861 32.5086 19.404 33.5693 17.9049 34.7935C17.1076 35.445 10.752 39.7193 11.0595 40.4033C12.6738 40.0173 14.4094 38.7986 15.8312 37.949C17.4136 37.0029 19.0735 36.1618 20.7073 35.3021C21.5985 34.8329 23.6318 33.2034 24.6111 33.9159C26.3077 35.1504 23.9823 37.4447 23.2183 38.2887C24.7034 38.1344 26.6932 35.9723 27.8487 35.0712C29.3097 33.9315 30.8462 32.9133 32.3292 31.7915C33.8792 30.6191 35.5022 29.5195 37.0758 28.3756C38.5456 27.3072 38.3075 27.3133 38.1635 25.553C38.073 24.4476 38.1666 23.3428 38.2302 22.2393ZM102.507 97.6162C104.419 97.4202 106.133 96.2438 107.969 95.8752C109.778 95.5122 111.485 94.5049 113.264 93.9337C115.604 93.1821 117.972 92.6262 120.389 92.2022C122.418 91.8461 124.376 91.0747 126.406 90.8387C130.596 90.3518 134.596 89.7894 138.815 90.3891C140.903 90.6858 142.732 91.1241 144.599 92.1222C146.677 93.2331 146.882 93.1781 149.114 92.1959C148.416 90.318 145.769 89.0713 143.993 88.689C141.317 88.1128 138.512 88.3725 135.787 88.4634C131.081 88.6203 126.195 89.6428 121.686 90.9101C113.042 93.3398 104.735 96.1693 96.7898 100.217C97.4618 101.141 98.1704 100.018 98.9492 99.5435C100.087 98.8495 101.346 98.2899 102.507 97.6162ZM176.044 27.5294C174.536 27.2314 173.028 27.1114 171.523 26.7529C169.62 26.2999 168.787 26.9891 167.016 27.8744C167.725 28.1973 168.628 28.7563 169.382 28.9513C170.709 29.2947 170.265 29.017 171.527 28.5119C172.646 28.0636 174.754 27.8831 175.905 28.1169C178.991 28.7431 178.495 32.3849 178.2 34.8125C179.72 34.0739 179.913 32.6832 180.453 31.2682C181.038 29.7367 181.668 28.346 182.118 26.7537C180.193 27.2573 178.043 27.5505 176.044 27.5294ZM200.26 85.2335C205.733 83.1899 211.88 83.7117 217.51 83.2354C219.677 83.052 222.672 83.3804 224.804 84.0747C225.826 84.4073 226.977 84.6509 227.946 85.1014C228.466 85.3434 228.887 85.9243 229.422 86.1037C230.469 86.4548 230.415 86.2487 231.538 85.6334C232.522 85.0937 233.514 84.5791 234.526 84.0935C240.647 81.1573 246.823 78.5537 253.122 76.1052C254.757 75.4693 256.383 75.0411 258.063 74.4865C259.125 74.1362 260.98 73.4221 262.122 73.7854C266.102 75.0511 260.311 79.806 259.006 81.0305C260.63 80.9547 263.613 80.197 264.552 82.0032C264.942 82.7522 264.805 83.8475 264.456 84.597C264.2 85.1457 263.643 85.4625 263.362 85.9806C262.832 86.9573 263.036 86.6062 263.117 87.5845C263.34 90.3006 262.808 91.5032 260.545 93.2455C258.406 94.8925 255.639 95.5944 253.088 96.3154C248.627 97.5763 243.946 97.9335 239.427 99.0217C237.302 99.5335 235.084 99.8647 232.953 100.251C230.586 100.68 227.802 100.348 225.799 101.661C221.795 104.287 218.124 107.565 213.68 109.464C209.758 111.14 206.102 111.961 201.887 112.684C197.92 113.366 193.811 112.882 189.981 112.98C185.501 113.094 181.346 112.788 177.075 111.497C172.733 110.184 168.544 108.503 164.849 105.992C162.761 104.573 160.683 103.206 158.719 101.608C156.323 99.6592 154.692 97.3505 152.901 94.8465C151.872 95.9569 151.049 96.5732 149.702 97.2834C153.815 101.802 157.288 107.043 161.19 111.747C162.817 113.708 164.166 115.822 165.709 117.825C167.235 119.806 168.25 122.259 169.926 124.103C171.491 125.824 172.55 127.819 173.877 129.728C175.503 132.07 177.692 134.119 179.423 136.399C181.21 138.751 183.039 141.072 184.98 143.278C186.779 145.323 188.693 147.337 190.376 149.462C193.8 153.784 197.856 157.689 201.748 161.593C202.546 162.393 203.423 163.168 204.131 164.05C204.653 164.7 205.162 165.131 205.791 165.808C206.318 166.375 206.962 167.367 207.393 168.052C208.153 169.264 208.609 169.795 209.608 170.842C210.267 171.533 211.581 172.908 211.3 173.98C211.127 174.637 210.33 174.66 210.106 175.209C209.982 175.515 210.239 175.906 210.23 176.213C210.183 177.721 210.914 178.139 212.117 179.244C213.329 180.358 214.894 181.249 216.322 182.08C217.399 182.708 218.515 183.559 219.708 182.987C220.536 182.59 221.397 181.831 222.269 181.382C224.475 180.243 226.858 179.221 229.108 178.304C234.136 176.253 239.176 174.02 244.003 171.393C246.725 169.911 249.695 168.443 252.693 167.728C254.043 167.406 255.468 166.596 256.462 167.798C257.448 168.991 256.812 170.617 256.258 171.823C257.655 171.622 259.505 171.228 260.409 172.612C260.751 173.135 260.529 174.519 260.903 174.823C261.068 174.958 262.401 174.665 262.665 174.734C266.068 175.63 264.881 180.674 263.17 182.573C259.259 186.913 253.424 189.053 248.333 191.553C247.001 192.207 245.652 192.767 244.28 193.305C242.522 193.994 240.913 194.864 239.129 195.508C236.156 196.579 233.282 198.136 230.385 199.32C227.426 200.528 224.132 201.131 221.024 202.028C218.387 202.787 212.792 204.522 212.735 200.262C210.246 202.201 207.064 195.874 205.797 194.38C204.654 193.032 203.517 191.663 202.433 190.268C201.444 188.995 200.471 185.898 199.174 185.068C198.382 184.561 197.506 185.576 196.287 185.818C194.171 186.237 193.123 185.642 191.338 184.659C188.069 182.859 185.054 180.644 181.702 178.989C178.384 177.35 175.552 174.974 172.44 172.982C169.457 171.074 166.231 169.483 163.431 167.363C157.94 163.206 151.555 160.334 146.403 155.716C143.748 153.336 140.632 151.354 137.797 149.146C136.506 148.141 135.14 147.285 133.799 146.355C133.044 145.831 132.318 145.052 131.491 144.654C130.671 144.258 131.088 144.103 130.32 144.402C129.883 144.572 129.382 145.365 129.022 145.685C123.699 150.413 117.689 152.649 110.972 154.759C109.451 155.237 108.036 155.756 106.492 156.16C105.02 156.545 103.942 157.209 102.34 157.44C99.3833 157.868 96.472 157.891 93.4947 157.909C90.5631 157.926 87.5473 157.971 84.7006 158.224C81.771 158.486 78.7241 157.983 75.8487 157.746C74.3934 157.625 72.8893 157.41 71.4312 157.188C70.0094 156.972 68.8086 157.246 67.4095 157.094C63.4765 156.664 59.9754 155.773 56.2281 154.49C52.8085 153.32 49.3164 153.109 45.8563 152.132C44.017 151.612 41.9338 151.185 40.2388 150.315C39.2759 149.821 37.8586 148.045 37.425 149.304C36.9113 148.641 36.5835 147.855 36.6396 147.003C35.3236 147.326 34.658 149.026 33.6927 149.916C32.6225 150.903 31.5689 151.55 30.8394 152.887C29.2071 155.877 30.2676 159.962 30.9108 163.099C31.5852 166.388 32.1947 170.11 31.8049 173.468C31.663 174.691 31.3386 176.481 29.8327 176.562C28.3002 176.643 27.4027 174.237 26.8602 173.182C25.6871 175.979 24.148 176.963 21.9205 174.582C21.4969 176.168 22.6376 182.576 19.4559 181.834C17.0707 181.278 15.0817 176.059 14.3722 174.098C12.0366 167.642 12.404 160.229 13.2126 153.518C13.9969 147.008 14.7246 139.847 20.0005 135.181C22.2831 133.162 24.5103 132.83 27.4045 132.905C30.3124 132.979 34.3963 134.28 36.3342 136.5C36.8145 135.679 35.8511 134.788 36.2382 133.938C36.7551 132.802 37.8357 133.277 38.8829 133.535C41.2491 134.115 43.4476 135.199 45.884 135.608C47.1314 135.818 48.4161 135.754 49.6643 135.881C50.7627 135.993 51.055 135.71 52.0084 135.542C52.7597 135.409 53.9006 135.598 54.6101 135.352C54.9065 135.249 55.4018 134.714 55.7713 134.533C56.3742 134.238 57.2761 134.103 57.9378 134.009C61.9189 133.442 65.7248 131.903 69.5795 130.592C74.2634 128.999 78.8122 127.465 82.966 124.634C86.7685 122.043 90.8629 119.488 94.0034 116.1C95.412 114.58 96.227 112.836 96.9897 110.945C97.6601 109.284 96.7943 109.071 95.9817 107.528C95.2678 106.173 95.142 104.895 93.9114 104.077C92.1133 102.881 89.9871 102.651 88.2206 101.248C86.0488 99.5231 86.1234 96.7758 85.6452 94.149C84.6676 88.7778 85.4535 82.2941 86.7864 77.0568C88.2507 71.3041 90.3924 65.7395 93.2766 60.5561C95.9959 55.6694 99.6729 52.0038 103.625 48.1654C102.631 47.4751 100.916 47.3721 99.7325 46.8421C98.0042 46.0683 96.5904 44.9204 95.0842 43.8539C92.2718 41.8627 89.7239 39.685 86.7047 38.0071C83.9007 36.4481 80.9429 35.129 77.9532 34.1227C76.4365 33.6121 74.6384 33.7415 73.0502 33.3178C71.8109 32.987 70.4031 32.7852 69.2026 32.3434C68.5834 32.1157 68.0404 31.6153 67.4021 31.4735C60.4639 29.9317 52.7837 30.2386 45.5791 30.1995C44.0405 30.1911 41.5838 29.7401 40.1552 30.4098C38.6643 31.1089 36.9933 32.8317 35.6583 33.8205C32.5154 36.1483 29.1955 38.1688 26.1436 40.6014C22.5297 43.4814 18.8383 46.3359 15.0922 49.0497C13.807 49.9804 11.4617 52.2358 10.4133 49.9505C9.51428 47.9897 11.3235 46.0221 11.982 44.3508C10.1298 45.411 6.26061 48.3522 5.29483 44.9503C4.36095 41.6608 7.32293 38.5767 9.26426 36.3443C7.08636 36.7887 2.8888 38.0198 0.918988 36.5065C-1.10041 34.9549 0.632048 31.5665 2.06939 30.376C6.44945 26.7485 12.2932 24.5139 17.5365 22.4673C22.8573 20.3902 28.2163 18.8349 33.6753 17.3811C34.7983 17.0818 35.764 16.1323 36.9295 16.0277C38.2724 15.9069 37.78 16.7862 38.4185 15.294C38.6962 14.6449 38.5936 13.8516 38.9589 13.2297C40.7354 10.2084 43.0156 14.7236 43.7005 16.3019C47.4967 14.7424 51.367 14.0058 55.2459 12.8579C58.3113 11.9507 61.4629 10.96 64.5652 10.0834C66.2362 9.61107 67.9259 9.37515 69.6156 9.06341C71.2297 8.76567 73.1483 8.28405 74.8663 8.11814C77.7963 7.83467 80.9031 7.55991 83.7917 7.49334C97.9006 7.16733 112.901 6.26882 124.331 16.3439C124.331 17.2625 127.274 19.7472 128 20.2534C130.023 21.6647 131.818 23.0503 133.694 24.7264C135.722 26.5382 137.344 28.1048 138.547 30.5652C139.583 32.6853 139.836 35.025 140.388 37.3004C141.863 35.621 142.317 37.2005 142.601 38.5828C142.906 40.0688 143.269 40.9618 144.218 42.1802C146.246 44.7851 148.909 46.1507 152.168 46.473C152.766 46.5322 154.745 46.701 155.302 46.472C156.312 46.0569 156.01 45.8089 156.444 44.6924C156.774 43.8417 157.26 43.219 157.691 42.4312C158.217 42.0561 158.416 41.5546 158.288 40.9275C158.302 40.6514 158.317 40.3753 158.331 40.0992C159.426 39.4557 160.674 42.4206 161.077 42.9556C162.245 44.5075 163.506 44.7709 165.404 44.7709C165.28 43.7326 165.005 43.674 165.983 43.1995C166.586 42.9068 167.45 43.1123 168.022 43.3445C169.667 44.0116 169.631 44.3389 171.489 43.5773C172.863 43.014 174.093 42.2817 175.337 41.4785C176.395 40.7951 176.562 40.6786 176.968 39.4837C177.279 38.5693 177.229 37.3535 177.345 36.4051C176.09 37.1577 175.355 38.6103 173.979 39.3574C172.582 40.1153 170.898 40.5893 169.377 39.8916C166.214 38.4396 167.105 34.4242 168.039 31.8766C166.592 31.6285 165.078 30.7681 164.154 29.6344C163.531 28.8709 163.08 27.9193 162.415 27.0473C160.896 25.059 156.971 24.5829 156.227 27.6192C155.848 29.165 156.747 29.7169 158.165 29.9134C159.852 30.1472 160.263 29.7319 159.649 31.7266C158.972 32.075 158.761 32.6179 159.018 33.355C158.976 33.6002 158.934 33.8453 158.892 34.0908C158.738 34.7085 158.409 35.1861 158.229 35.7797C157.718 37.4624 157.63 37.9234 155.728 38.4362C152.39 39.336 148.513 39.8054 145.072 40.1003C143.928 40.1983 142.714 40.1861 143.094 38.6319C143.407 37.3488 145.538 36.9144 146.618 36.5184C147.87 36.0595 150.183 35.8458 151.255 35.1835C152.398 34.4776 152.289 33.1952 152.033 31.8317C151.713 30.1301 151.388 28.8355 151.44 27.0068C151.497 25.0043 152.217 24.2778 153.41 22.6924C150.265 23.5652 146.754 25.8484 143.489 25.8439C139.144 25.8378 139.949 21.3709 140.816 18.4334C139.228 18.7015 136.764 19.3644 135.986 17.3769C135.075 15.0531 137.346 12.3703 138.74 10.8211C136.913 10.6433 135.171 11.0845 134.506 8.88138C134.043 7.34777 134.611 5.53755 135.665 4.3804C138.426 1.3499 142.718 0.744112 146.501 0.316655C148.592 0.0804704 150.724 -0.11635 152.823 0.0807346C154.857 0.271743 156.45 1.12877 158.306 1.9895C160.247 2.88959 161.566 4.14475 162.862 5.8625C163.471 6.6696 163.978 7.45212 164.32 8.41113C164.486 8.87901 164.642 11.1922 165.009 11.457C165.552 11.8495 168.877 10.4837 169.824 10.522C170.87 10.5643 171.52 10.8903 172.139 11.7687C172.474 12.245 172.815 14.0053 173.442 14.1974C173.745 14.2901 175.635 13.511 176.079 13.4431C176.725 13.3443 177.35 13.2024 178.012 13.1388C180.067 12.9406 182.204 12.8852 184.198 13.516C188.178 14.7744 190.445 18.3853 189.405 22.6393C189.211 23.4321 188.668 24.0109 188.431 24.7625C188.111 25.7731 188.228 26.8306 187.988 27.8755C187.483 30.0767 186.545 31.3839 184.645 32.5281C190.753 37.39 184.128 48.4394 177.818 42.8645C176.025 45.3785 172.121 47.1774 169.192 47.8769C165.245 48.8198 161.581 48.2671 159.47 44.6261C159.23 45.2506 158.842 45.9235 158.724 46.5745C158.631 46.8165 158.538 47.0582 158.446 47.2999C158.17 47.6666 158.303 47.8785 158.843 47.9351C159.212 48.9775 159.483 49.0835 158.939 50.345C162.973 48.9482 167.224 52.5803 170.009 55.2724C171.885 57.086 172.883 59.7467 174.057 62.0168C175.436 64.6798 176.485 67.4625 177.758 70.1689C178.901 72.6013 179.607 75.2437 180.856 77.6222C182.037 79.8728 183.948 81.496 185.93 82.9382C187.769 84.2758 189.614 85.6128 191.967 86.1692C194.648 86.803 197.64 85.9061 200.26 85.2335Z" fill="#00706C"/>
<path fill-rule="evenodd" clip-rule="evenodd" d="M20.5078 97.5169C20.7153 94.2121 25.7116 91.2038 27.9767 89.1809C30.914 86.5576 33.863 83.9085 37.0883 81.5918C45.1658 75.789 53.5593 70.5636 62.5009 66.2284C63.8689 65.5652 73.8415 60.8329 74.1162 63.5073C74.2807 65.1079 70.2211 65.9086 69.1115 66.3874C66.678 67.4382 64.3696 68.7587 62.0184 69.9608C54.9629 73.5682 48.5635 78.6672 42.0318 83.2787C38.1335 86.0311 34.4872 89.1419 30.6266 91.9332C28.569 93.4209 26.7605 95.1895 24.7733 96.7321C23.356 97.8322 21.1882 100.155 20.5078 97.5169Z" fill="#00706C"/>
<path fill-rule="evenodd" clip-rule="evenodd" d="M189.259 118.977C190.363 118.529 191.636 123.013 192.118 123.813C193.037 125.338 194.043 126.914 195.159 128.295C197.737 131.487 200.353 134.547 203.393 137.315C206.306 139.969 209.596 142.481 213.091 144.341C214.098 144.877 221.639 147.276 218.797 149.671C217.918 150.412 215.167 149.71 214.224 149.415C212.595 148.906 210.79 148.056 209.299 147.231C206.17 145.5 203.244 143.291 200.737 140.739C197.87 137.821 195.527 134.621 193.22 131.252C191.151 128.23 187.983 122.703 189.259 118.977Z" fill="#00706C"/>
<path fill-rule="evenodd" clip-rule="evenodd" d="M63.2813 81.4938C62.8452 82.4468 62.093 82.1877 61.2791 82.4909C60.0144 82.9624 58.8126 83.8249 57.6418 84.4976C55.3917 85.7904 53.1636 87.1352 50.9617 88.5083C46.8709 91.0592 42.9187 93.8205 39.2676 96.9727C36.9667 94.6593 48.487 86.5093 49.9996 85.536C52.2608 84.0809 54.608 82.5798 57.034 81.4097C58.937 80.4919 63.1968 77.9971 63.2813 81.4938Z" fill="#00706C"/>
<path fill-rule="evenodd" clip-rule="evenodd" d="M203.736 125.419C205.264 125.104 205.703 127.494 206.338 128.241C207.348 129.428 208.635 130.443 209.841 131.386C211.31 132.535 212.632 133.719 214.174 134.769C215.429 135.624 218.192 136.956 217.954 138.835C217.411 143.129 209.68 136.95 208.38 135.664C206.525 133.833 201.101 128.148 203.736 125.419Z" fill="#00706C"/>
<path fill-rule="evenodd" clip-rule="evenodd" d="M221.191 134.848C220.14 138.514 213.066 131.969 213.603 129.333C214.091 126.942 216.648 129.416 217.724 130.324C219.209 131.576 221.121 132.814 221.191 134.848Z" fill="#00706C"/>
<path fill-rule="evenodd" clip-rule="evenodd" d="M57.072 94.9771C55.4186 94.5059 51.3264 96.5806 53.8053 93.4149C54.5137 92.5107 55.3127 91.6483 56.3008 92.1307C57.3003 92.6188 57.8092 94.1472 57.072 94.9771Z" fill="#00706C"/>
<path fill-rule="evenodd" clip-rule="evenodd" d="M160.254 49.9025C159.863 50.0653 159.472 50.2278 159.082 50.3906C159.222 49.9998 159.362 49.6093 159.503 49.2188C159.65 49.6118 159.9 49.8396 160.254 49.9025Z" fill="#00706C"/>
<path fill-rule="evenodd" clip-rule="evenodd" d="M77.6367 7.97083C76.7342 8.13225 75.9152 8.16125 75 8.13284C75.893 7.97698 76.7342 7.97991 77.6367 7.97083Z" fill="#00706C"/>
<path fill-rule="evenodd" clip-rule="evenodd" d="M12.7006 162.598C12.7299 163.38 12.7589 164.161 12.7876 164.941C12.7584 164.159 12.7296 163.378 12.7006 162.598Z" fill="#00706C"/>
<path fill-rule="evenodd" clip-rule="evenodd" d="M189.652 21.6797C189.635 20.9957 189.618 20.3117 189.602 19.6289C189.877 20.3089 189.819 20.9932 189.652 21.6797Z" fill="#00706C"/>
<path fill-rule="evenodd" clip-rule="evenodd" d="M80.8594 7.84192C80.1758 7.84514 79.4919 7.84866 78.8086 7.85188C79.592 7.62014 80.2966 7.61663 80.8594 7.84192Z" fill="#00706C"/>
<path fill-rule="evenodd" clip-rule="evenodd" d="M85.4379 84.9609C85.4127 85.5472 85.3875 86.1332 85.3629 86.7188C85.3881 86.1325 85.413 85.5467 85.4379 84.9609Z" fill="#00706C"/>
<path fill-rule="evenodd" clip-rule="evenodd" d="M101.074 7.24086L99.3164 7.11459C99.9024 7.15678 100.488 7.19868 101.074 7.24086Z" fill="#00706C"/>
<path fill-rule="evenodd" clip-rule="evenodd" d="M26.0742 132.901C25.4844 132.913 24.8827 133.117 24.3164 132.754C24.9022 132.803 25.4884 132.852 26.0742 132.901Z" fill="#00706C"/>
<path fill-rule="evenodd" clip-rule="evenodd" d="M261.621 80.9085C261.053 81.2853 260.449 80.9912 259.863 81.0348C260.449 80.9926 261.035 80.9507 261.621 80.9085Z" fill="#00706C"/>
<path fill-rule="evenodd" clip-rule="evenodd" d="M145.02 0.621826C144.457 1.00532 143.852 0.777686 143.262 0.758936C143.848 0.713232 144.434 0.667529 145.02 0.621826Z" fill="#00706C"/>
<path fill-rule="evenodd" clip-rule="evenodd" d="M50.3906 135.87C49.9021 135.875 49.4138 135.88 48.9258 135.884C49.4126 135.614 49.9011 135.663 50.3906 135.87Z" fill="#00706C"/>
<path fill-rule="evenodd" clip-rule="evenodd" d="M137.109 10.7111C137.403 10.6994 137.697 10.6876 137.988 10.6756C137.694 10.6873 137.402 10.6991 137.109 10.7111Z" fill="#00706C"/>
<path fill-rule="evenodd" clip-rule="evenodd" d="M92.5781 7.12545C92.1873 7.18053 91.7964 7.23561 91.4062 7.29039C91.7607 6.85973 92.1887 7.19108 92.5781 7.12545Z" fill="#00706C"/>
<path fill-rule="evenodd" clip-rule="evenodd" d="M24.0234 175.956C24.3172 175.937 24.6113 175.918 24.9023 175.9C24.6078 175.919 24.3156 175.937 24.0234 175.956Z" fill="#00706C"/>
<path fill-rule="evenodd" clip-rule="evenodd" d="M206.543 83.9171C206.152 83.9294 205.762 83.9417 205.371 83.954C205.762 83.9417 206.152 83.9294 206.543 83.9171Z" fill="#00706C"/>
<path fill-rule="evenodd" clip-rule="evenodd" d="M158.945 33.3984C158.938 33.105 158.932 32.8113 158.926 32.5195C158.932 32.8134 158.938 33.1059 158.945 33.3984Z" fill="#00706C"/>
<path fill-rule="evenodd" clip-rule="evenodd" d="M152.232 33.6914C152.208 34.0824 152.185 34.4734 152.163 34.8633C152.186 34.472 152.209 34.0816 152.232 33.6914Z" fill="#00706C"/>
<path fill-rule="evenodd" clip-rule="evenodd" d="M87.5977 158.078C87.8918 158.064 88.1854 158.049 88.4766 158.035C88.1819 158.049 87.8899 158.064 87.5977 158.078Z" fill="#00706C"/>
<path fill-rule="evenodd" clip-rule="evenodd" d="M4.98047 37.0638C5.27453 37.0617 5.56832 37.0594 5.85938 37.0573C5.56449 37.0594 5.27235 37.0617 4.98047 37.0638Z" fill="#00706C"/>
<path fill-rule="evenodd" clip-rule="evenodd" d="M221.484 83.4653C221.093 83.465 220.703 83.4644 220.312 83.4638C220.704 83.269 221.094 83.0619 221.484 83.4653Z" fill="#00706C"/>
<path fill-rule="evenodd" clip-rule="evenodd" d="M220.984 134.766C220.97 134.375 220.957 133.984 220.943 133.594C221.188 133.978 221.224 134.367 220.984 134.766Z" fill="#00706C"/>
<path fill-rule="evenodd" clip-rule="evenodd" d="M63.4425 81.4453C63.4326 81.0544 63.4229 80.6635 63.4129 80.2734C63.4232 80.6643 63.4329 81.055 63.4425 81.4453Z" fill="#00706C"/>
<path fill-rule="evenodd" clip-rule="evenodd" d="M40.7227 30.3357C40.9187 30.3267 41.1151 30.3176 41.3086 30.3088C41.1115 30.3176 40.9173 30.3267 40.7227 30.3357Z" fill="#00706C"/>
<path fill-rule="evenodd" clip-rule="evenodd" d="M218.848 83.243C218.459 83.5254 218.067 83.5269 217.676 83.2497C218.067 83.2477 218.457 83.2453 218.848 83.243Z" fill="#00706C"/>
<path fill-rule="evenodd" clip-rule="evenodd" d="M54.7852 135.059C54.6383 135.502 54.2342 135.311 53.9062 135.307C54.1992 135.224 54.4925 135.142 54.7852 135.059Z" fill="#00706C"/>
<path fill-rule="evenodd" clip-rule="evenodd" d="M138.281 18.9151C138.477 18.9025 138.673 18.8899 138.867 18.8779C138.671 18.8908 138.476 18.9028 138.281 18.9151Z" fill="#00706C"/>
<path fill-rule="evenodd" clip-rule="evenodd" d="M84.375 7.3979C83.9843 7.44654 83.5933 7.49517 83.2031 7.54351C83.5938 7.49488 83.9846 7.44654 84.375 7.3979Z" fill="#00706C"/>
<path fill-rule="evenodd" clip-rule="evenodd" d="M228.516 100.624C228.712 100.631 228.908 100.638 229.102 100.646C228.905 100.639 228.71 100.631 228.516 100.624Z" fill="#00706C"/>
<path fill-rule="evenodd" clip-rule="evenodd" d="M86.6073 97.8516C86.5841 98.1451 86.561 98.4387 86.5373 98.7305C86.5601 98.4362 86.5836 98.1439 86.6073 97.8516Z" fill="#00706C"/>
<path fill-rule="evenodd" clip-rule="evenodd" d="M143.848 39.9839C144.044 39.9883 144.24 39.9927 144.434 39.9965C144.237 39.9918 144.042 39.988 143.848 39.9839Z" fill="#00706C"/>
<path fill-rule="evenodd" clip-rule="evenodd" d="M53.3203 153.642C53.5165 153.655 53.7128 153.669 53.9062 153.682C53.7093 153.669 53.5147 153.655 53.3203 153.642Z" fill="#00706C"/>
<path fill-rule="evenodd" clip-rule="evenodd" d="M210.059 83.7408C209.668 83.7399 209.277 83.7388 208.887 83.7376C209.279 83.4335 209.669 83.5302 210.059 83.7408Z" fill="#00706C"/>
<path fill-rule="evenodd" clip-rule="evenodd" d="M248.438 97.4331C248.633 97.419 248.829 97.4049 249.023 97.3912C248.827 97.4049 248.632 97.419 248.438 97.4331Z" fill="#00706C"/>
<path fill-rule="evenodd" clip-rule="evenodd" d="M254.297 167.352C253.906 167.405 253.515 167.458 253.125 167.511C253.516 167.458 253.906 167.405 254.297 167.352Z" fill="#00706C"/>
<path fill-rule="evenodd" clip-rule="evenodd" d="M136.123 15.8203C136.097 16.1139 136.072 16.4072 136.045 16.6992C136.071 16.4052 136.097 16.1129 136.123 15.8203Z" fill="#00706C"/>
<path fill-rule="evenodd" clip-rule="evenodd" d="M102.539 97.5684C101.349 98.2309 100.064 98.7862 98.893 99.4631C98.0657 99.941 97.3919 101.064 96.6797 100.125C98.2492 99.3584 100.792 97.404 102.539 97.5684Z" fill="#00706C"/>
<path fill-rule="evenodd" clip-rule="evenodd" d="M27.176 156.738C26.9358 156.052 26.939 155.368 27.1994 154.688C27.1918 155.372 27.1836 156.055 27.176 156.738Z" fill="#00706C"/>
<path fill-rule="evenodd" clip-rule="evenodd" d="M28.6477 166.406C28.6676 166.797 28.6878 167.188 28.7078 167.578C28.6424 167.583 28.1356 166.431 28.6477 166.406Z" fill="#00706C"/>
<path fill-rule="evenodd" clip-rule="evenodd" d="M38.1853 23.7305C38.2166 23.2418 38.2485 22.753 38.2796 22.2656C38.2482 22.7546 38.2166 23.2425 38.1853 23.7305Z" fill="#00706C"/>
<path fill-rule="evenodd" clip-rule="evenodd" d="M177.246 27.3999C176.854 27.3946 176.463 27.3896 176.074 27.3853C176.467 27.3905 176.856 27.3952 177.246 27.3999Z" fill="#00706C"/>
<path fill-rule="evenodd" clip-rule="evenodd" d="M89.9414 152.256C90.4299 152.217 90.9181 152.178 91.4062 152.139C90.9181 152.178 90.4296 152.217 89.9414 152.256Z" fill="#00706C"/>
<path fill-rule="evenodd" clip-rule="evenodd" d="M16.7796 169.629C16.8236 170.02 16.8678 170.411 16.9118 170.801C16.8675 170.41 16.8233 170.019 16.7796 169.629Z" fill="#00706C"/>
<path fill-rule="evenodd" clip-rule="evenodd" d="M71.1914 151.387C71.5821 151.341 71.9728 151.296 72.3633 151.25C71.9726 151.296 71.5819 151.341 71.1914 151.387Z" fill="#00706C"/>
<path fill-rule="evenodd" clip-rule="evenodd" d="M67.6758 150.693C68.0624 150.786 68.5028 150.366 68.8477 150.852C68.4567 150.799 68.0665 150.746 67.6758 150.693Z" fill="#00706C"/>
<path fill-rule="evenodd" clip-rule="evenodd" d="M16.587 161.719C16.5642 162.012 16.541 162.306 16.5185 162.598C16.5419 162.303 16.5645 162.011 16.587 161.719Z" fill="#00706C"/>
<path fill-rule="evenodd" clip-rule="evenodd" d="M25.0332 34.8633C25.0434 35.1567 25.0537 35.45 25.0645 35.7422C25.0545 35.4481 25.0437 35.1557 25.0332 34.8633Z" fill="#00706C"/>
<path fill-rule="evenodd" clip-rule="evenodd" d="M20.5932 165.234C20.6339 164.941 20.6747 164.648 20.7154 164.355C20.6744 164.649 20.6339 164.942 20.5932 165.234Z" fill="#00706C"/>
<path fill-rule="evenodd" clip-rule="evenodd" d="M16.5107 167.871C16.5388 168.164 16.5667 168.458 16.5948 168.75C16.5667 168.457 16.5388 168.164 16.5107 167.871Z" fill="#00706C"/>
<path fill-rule="evenodd" clip-rule="evenodd" d="M229.743 94.9219C229.992 95.2142 229.979 95.5077 229.749 95.8008C229.747 95.5067 229.745 95.2144 229.743 94.9219Z" fill="#00706C"/>
<path fill-rule="evenodd" clip-rule="evenodd" d="M140.039 93.9237C139.843 93.9058 139.647 93.8877 139.453 93.8692C139.65 93.8871 139.844 93.9056 140.039 93.9237Z" fill="#00706C"/>
<path fill-rule="evenodd" clip-rule="evenodd" d="M208.408 99.5862C206.239 99.9014 208.239 96.9005 208.826 96.4841C209.51 96.0002 210.234 95.8077 210.897 95.2264C211.311 94.8628 211.781 93.9856 212.418 94.0459C213.822 94.1781 213.189 96.1907 212.77 97.0539C211.95 98.7435 210.234 99.615 208.408 99.5862Z" fill="#00706C"/>
<path fill-rule="evenodd" clip-rule="evenodd" d="M138.018 65.0391C136.741 64.5862 130.286 63.3594 133.145 60.7455C135.033 59.0186 140.281 63.4333 138.018 65.0391Z" fill="#00706C"/>
<path fill-rule="evenodd" clip-rule="evenodd" d="M108.403 85.5083C108.203 83.2246 114.399 80.6953 113.601 83.6957C113.416 84.3931 111.66 86.1146 111.181 86.5703C109.898 87.7909 108.404 87.5252 108.403 85.5083Z" fill="#00706C"/>
<path fill-rule="evenodd" clip-rule="evenodd" d="M50.3906 22.3916C50.8104 20.9116 51.2729 20.216 52.7396 19.6443C53.6772 19.2783 55.2305 18.9458 55.3665 20.4727C55.4671 21.5996 53.8772 22.6956 53.108 23.1752C51.7324 24.0334 50.9747 23.9878 50.3906 22.3916Z" fill="#00706C"/>
<path fill-rule="evenodd" clip-rule="evenodd" d="M134.175 76.8633C134.19 78.4165 133.647 80.2426 132.279 81.1755C131.208 81.9057 128.773 82.2491 129.697 80.1336C129.979 79.4894 130.773 79.1703 131.259 78.6929C132.058 77.9066 132.124 77.055 132.572 76.319C132.724 76.0671 132.483 75.472 132.963 75.3251C133.766 75.0799 134.231 76.2999 134.175 76.8633Z" fill="#00706C"/>
<path fill-rule="evenodd" clip-rule="evenodd" d="M163.239 64.1602C164.343 64.1583 165.387 64.5552 164.745 65.8154C164.258 66.7709 162.143 67.5039 161.186 67.6377C159.958 67.8096 158.586 67.4299 159.26 65.8735C159.822 64.5773 162.023 64.4609 163.239 64.1602Z" fill="#00706C"/>
<path fill-rule="evenodd" clip-rule="evenodd" d="M172.266 84.669C172.22 87.5166 167.088 84.5406 167.616 82.4043C168.282 79.7125 171.855 83.4117 172.266 84.669Z" fill="#00706C"/>
<path fill-rule="evenodd" clip-rule="evenodd" d="M113.377 34.5671C113.377 36.9858 108.279 33.8882 108.718 31.7723C109.305 28.9518 113.483 32.7401 113.377 34.5671Z" fill="#00706C"/>
<path fill-rule="evenodd" clip-rule="evenodd" d="M108.349 24.3164C106.195 22.5947 111.133 18.1649 112.551 20.1155C113.835 21.882 109.648 24.211 108.349 24.3164Z" fill="#00706C"/>
<path fill-rule="evenodd" clip-rule="evenodd" d="M109.838 60.6445C108.657 60.5385 107.297 60.5503 106.258 59.8736C105.5 59.3798 104.183 57.4729 105.338 56.6497C106.049 56.1428 107.844 57.5859 108.573 57.9651C109.815 58.6118 110.642 59.0145 109.838 60.6445Z" fill="#00706C"/>
<path fill-rule="evenodd" clip-rule="evenodd" d="M159.8 76.7575C157.019 76.794 156.14 73.4333 159.49 73.8667C160.381 73.9818 162.576 74.196 162.597 75.3693C162.622 76.7221 160.851 76.5839 159.8 76.7575Z" fill="#00706C"/>
<path fill-rule="evenodd" clip-rule="evenodd" d="M131.543 45.7962C131.343 47.0726 130.998 48.0109 129.878 48.7569C128.915 49.398 127.024 50.2511 127.155 48.3363C127.233 47.1967 131.029 42.9327 131.543 45.7962Z" fill="#00706C"/>
<path fill-rule="evenodd" clip-rule="evenodd" d="M77.4008 18.75C78.5073 19.28 79.9523 24.9253 78.4686 25.4216C76.1098 26.2109 76.6446 19.7494 77.4008 18.75Z" fill="#00706C"/>
<path fill-rule="evenodd" clip-rule="evenodd" d="M125.484 71.7773C123.765 69.8266 128.27 65.9483 129.354 67.9326C130.25 69.5716 126.529 71.0845 125.484 71.7773Z" fill="#00706C"/>
<path fill-rule="evenodd" clip-rule="evenodd" d="M94.6346 20.0597C94.9378 17.0703 98.3749 21.4843 98.1323 22.9216C97.707 25.4388 94.4758 21.3984 94.6346 20.0597Z" fill="#00706C"/>
<path fill-rule="evenodd" clip-rule="evenodd" d="M97.2656 94.4059C97.2475 96.4013 93.3304 94.3326 93.787 92.226C94.3027 89.8465 97.2366 93.2935 97.2656 94.4059Z" fill="#00706C"/>
<path fill-rule="evenodd" clip-rule="evenodd" d="M176.367 95.8047C177.529 92.3337 178.207 94.6949 178.533 96.8853C178.638 97.5851 179.11 99.5211 177.896 99.2987C176.767 99.092 176.459 96.5389 176.367 95.8047Z" fill="#00706C"/>
<path fill-rule="evenodd" clip-rule="evenodd" d="M190.569 97.8516C191.479 98.4749 193.299 103.137 191.254 102.475C189.695 101.97 189.372 98.771 190.569 97.8516Z" fill="#00706C"/>
<path fill-rule="evenodd" clip-rule="evenodd" d="M144.648 78.8086C144.751 80.0606 144.921 80.4892 145.588 81.5203C146.16 82.4053 146.533 82.8183 145.727 83.7891C144.77 83.0592 143.614 82.4918 143.329 81.2752C143.108 80.3351 143.403 78.8473 144.648 78.8086Z" fill="#00706C"/>
<path fill-rule="evenodd" clip-rule="evenodd" d="M117.416 65.918C116.742 65.3828 114.393 62.5273 114.92 61.4913C115.571 60.212 118.846 63.9515 117.416 65.918Z" fill="#00706C"/>
<path fill-rule="evenodd" clip-rule="evenodd" d="M161.657 86.7188C162.385 87.3639 162.049 88.7274 162.174 89.5616C162.3 90.4072 163.004 91.5359 162.265 92.2852C160.448 91.2461 160.51 88.2018 161.657 86.7188Z" fill="#00706C"/>
<path fill-rule="evenodd" clip-rule="evenodd" d="M99.3165 75.8711C99.3043 74.8643 101.702 73.0328 102.2 74.2091C102.627 75.2188 99.963 78.2424 99.3165 75.8711Z" fill="#00706C"/>
</svg>
