<svg width="25" height="25" viewBox="0 0 25 25" fill="none" xmlns="http://www.w3.org/2000/svg">
<path d="M23.5 12.7604C23.5 11.9479 23.4271 11.1667 23.2917 10.4167H12.5V14.849H18.6667C18.401 16.2813 17.5938 17.4948 16.3802 18.3073V21.1823H20.0833C22.25 19.1875 23.5 16.25 23.5 12.7604Z" fill="#4285F4"/>
<path d="M12.5 23.9583C15.5938 23.9583 18.1875 22.9323 20.0833 21.1823L16.3802 18.3073C15.3542 18.9948 14.0417 19.401 12.5 19.401C9.51563 19.401 6.98959 17.3854 6.08855 14.6771H2.26042V17.6458C4.14584 21.3906 8.02084 23.9583 12.5 23.9583Z" fill="#34A853"/>
<path d="M6.08855 14.6771C5.85938 13.9896 5.72917 13.2552 5.72917 12.5C5.72917 11.7448 5.85938 11.0104 6.08855 10.3229V7.35419H2.26042C1.45834 8.95091 1.04096 10.7132 1.04167 12.5C1.04167 14.349 1.48438 16.099 2.26042 17.6459L6.08855 14.6771Z" fill="#FBBC05"/>
<path d="M12.5 5.59898C14.1823 5.59898 15.6927 6.1771 16.8802 7.31252L20.1667 4.02606C18.1823 2.1771 15.5885 1.04169 12.5 1.04169C8.02084 1.04169 4.14584 3.6094 2.26042 7.35419L6.08855 10.3229C6.98959 7.6146 9.51563 5.59898 12.5 5.59898Z" fill="#EA4335"/>
</svg>
